# xmcd
#
# Track frame offsets:
#	150
#	9872
#	21035
#	32857
#	47645
#	59685
#	75745
#	89312
#	100655
#	112062
#	123102
#	133537
#	145865
#	157972
#	170400
#	182177
#	192360
#	205750
#	223407
#	234757
#	247090
#	259042
#	269250
#	282467
#	294965
#	307840
#	317867
#	327570
#
# Disc length: 4524 seconds
#
# Revision: 2
# Processed by: cddbd v1.5.2PL0 Copyright (c) Steve Scherf et al.
# Submitted via: EZCDAudioConverter 1.3.4.1
#
DISCID=9311aa1c
DTITLE=John Gregory - Mission Impossible And Other Tv Themes
DYEAR=1996
DGENRE=
TTITLE0=Mission Impossible
TTITLE1=The Rockford Files
TTITLE2=Cannon
TTITLE3=Softly Softly
TTITLE4=Columbo
TTITLE5=M Squad
TTITLE6=A Man Called Ironside
TTITLE7=Griff
TTITLE8=The Untouchables
TTITLE9=Mannix
TTITLE10=Route 66
TTITLE11=McMillan and Wife
TTITLE12=Harry-O
TTITLE13=Streets Of San Francisco
TTITLE14=The Six Million Dollar Man
TTITLE15=Hawaii 5-0
TTITLE16=It Takes A Thief
TTITLE17=Theme From S.W.A.T.
TTITLE18=I Spy
TTITLE19=McCloud
TTITLE20=Perry Mason
TTITLE21=The Name Of The Game
TTITLE22=Banacek
TTITLE23=Johnny Staccato
TTITLE24=Policewoman
TTITLE25=The Sweeney
TTITLE26=The Avengers
TTITLE27=Kojak
EXTD=
EXTT0=
EXTT1=
EXTT2=
EXTT3=
EXTT4=
EXTT5=
EXTT6=
EXTT7=
EXTT8=
EXTT9=
EXTT10=
EXTT11=
EXTT12=
EXTT13=
EXTT14=
EXTT15=
EXTT16=
EXTT17=
EXTT18=
EXTT19=
EXTT20=
EXTT21=
EXTT22=
EXTT23=
EXTT24=
EXTT25=
EXTT26=
EXTT27=
PLAYORDER=
